<svg width="19" height="18" viewBox="0 0 19 18" fill="none" xmlns="http://www.w3.org/2000/svg">
<path d="M7.195 10.3128C7.195 10.4672 7.1583 10.6182 7.08953 10.7466C7.02076 10.8749 6.92302 10.975 6.80867 11.0341C6.69432 11.0932 6.56848 11.1086 6.44708 11.0785C6.32569 11.0484 6.21418 10.974 6.12665 10.8649C6.03913 10.7557 5.97953 10.6166 5.95538 10.4651C5.93123 10.3137 5.94362 10.1567 5.99099 10.0141C6.03836 9.87142 6.11857 9.74949 6.22149 9.66371C6.3244 9.57792 6.4454 9.53214 6.56918 9.53214C6.73516 9.53214 6.89434 9.61439 7.0117 9.76079C7.12907 9.9072 7.195 10.1058 7.195 10.3128ZM11.5758 9.53214C11.452 9.53214 11.331 9.57792 11.2281 9.66371C11.1252 9.74949 11.0449 9.87142 10.9976 10.0141C10.9502 10.1567 10.9378 10.3137 10.962 10.4651C10.9861 10.6166 11.0457 10.7557 11.1332 10.8649C11.2208 10.974 11.3323 11.0484 11.4537 11.0785C11.5751 11.1086 11.7009 11.0932 11.8153 11.0341C11.9296 10.975 12.0273 10.8749 12.0961 10.7466C12.1649 10.6182 12.2016 10.4672 12.2016 10.3128C12.2016 10.1058 12.1357 9.9072 12.0183 9.76079C11.9009 9.61439 11.7417 9.53214 11.5758 9.53214ZM17.8183 14.1675C16.5589 15.5337 14.8613 16.5681 12.9056 17.1634C12.8347 17.1907 12.7608 17.2039 12.6866 17.2024C12.512 17.2023 12.3409 17.141 12.1928 17.0254C12.0448 16.9098 11.9259 16.7445 11.8496 16.5486L11.0047 14.4505C9.72195 14.6586 8.42299 14.6586 7.14024 14.4505L6.29538 16.5486C6.21907 16.7445 6.10011 16.9098 5.95209 17.0254C5.80408 17.141 5.63298 17.2023 5.45834 17.2024C5.38414 17.2039 5.31021 17.1907 5.2393 17.1634C3.28361 16.5681 1.58606 15.5337 0.326592 14.1675C0.190037 14.0198 0.0902171 13.8265 0.0389267 13.6103C-0.0123636 13.3942 -0.0129807 13.1642 0.0371486 12.9476L2.6969 1.89115C2.73679 1.72511 2.80598 1.57232 2.89938 1.44399C2.99278 1.31565 3.10803 1.21503 3.23667 1.14949C4.00518 0.753498 4.80124 0.446438 5.6148 0.232185C5.84053 0.166998 6.07766 0.210092 6.2791 0.35291C6.48054 0.495729 6.63155 0.727826 6.70216 1.00311L7.24976 3.03291C8.46051 2.85075 9.68443 2.85075 10.8952 3.03291L11.4428 1.00311C11.5134 0.727826 11.6644 0.495729 11.8658 0.35291C12.0673 0.210092 12.3044 0.166998 12.5301 0.232185C13.3437 0.446438 14.1398 0.753498 14.9083 1.14949C15.0369 1.21503 15.1522 1.31565 15.2456 1.44399C15.339 1.57232 15.4081 1.72511 15.448 1.89115L18.1078 12.9476C18.1579 13.1642 18.1573 13.3942 18.106 13.6103C18.0547 13.8265 17.9549 14.0198 17.8183 14.1675ZM17.5054 13.1721L14.8457 2.1156C14.8341 2.0596 14.8116 2.00803 14.7802 1.96547C14.7489 1.92292 14.7095 1.89068 14.6658 1.87163C13.9326 1.49308 13.1733 1.1991 12.3972 0.993356C12.3216 0.971195 12.2421 0.984892 12.1741 1.03178C12.1062 1.07868 12.0546 1.15542 12.0295 1.24708L11.5288 3.14025C12.149 3.27036 12.7607 3.45626 13.3594 3.69649C13.4298 3.72533 13.4897 3.7844 13.5284 3.86318C13.5672 3.94196 13.5823 4.03534 13.571 4.1267C13.5597 4.21806 13.5228 4.30146 13.4669 4.36207C13.4109 4.42268 13.3396 4.45655 13.2655 4.45766L13.1716 4.43815C11.8447 3.92309 10.4621 3.66635 9.07247 3.67697C7.68285 3.66635 6.30022 3.92309 4.97333 4.43815C4.93325 4.45885 4.89016 4.46893 4.8468 4.46775C4.80343 4.46657 4.76073 4.45416 4.72142 4.4313C4.6821 4.40844 4.64703 4.37563 4.61842 4.33496C4.58981 4.29429 4.56829 4.24664 4.55523 4.19504C4.54216 4.14344 4.53785 4.08902 4.54254 4.03523C4.54724 3.98144 4.56085 3.92945 4.58251 3.88257C4.60417 3.83569 4.63341 3.79494 4.66837 3.76291C4.70333 3.73087 4.74324 3.70825 4.78558 3.69649C5.38421 3.45626 5.99598 3.27036 6.61611 3.14025L6.11546 1.24708C6.09033 1.15542 6.03879 1.07868 5.97084 1.03178C5.90288 0.984892 5.82338 0.971195 5.74778 0.993356C4.97285 1.20035 4.21379 1.49095 3.47918 1.86187C3.43583 1.88459 3.39715 1.91919 3.366 1.96312C3.33485 2.00704 3.31204 2.05916 3.29925 2.1156L0.639503 13.1721C0.620313 13.2451 0.619792 13.3238 0.63801 13.3972C0.656229 13.4707 0.692288 13.5352 0.7412 13.582C1.92244 14.8603 3.53394 15.846 5.38794 16.412C5.45731 16.4281 5.52901 16.4159 5.59241 16.3772C5.65581 16.3386 5.70755 16.2755 5.73996 16.1973L6.48313 14.3334C5.90912 14.2015 5.34219 14.0255 4.78558 13.8064C4.74324 13.7946 4.70333 13.772 4.66837 13.74C4.63341 13.708 4.60417 13.6672 4.58251 13.6203C4.56085 13.5734 4.54724 13.5215 4.54254 13.4677C4.53785 13.4139 4.54216 13.3595 4.55523 13.3079C4.56829 13.2563 4.58981 13.2086 4.61842 13.1679C4.64703 13.1273 4.6821 13.0945 4.72142 13.0716C4.76073 13.0487 4.80343 13.0363 4.8468 13.0351C4.89016 13.034 4.93325 13.0441 4.97333 13.0648C6.30022 13.5798 7.68285 13.8365 9.07247 13.8259C10.4621 13.8365 11.8447 13.5798 13.1716 13.0648C13.2117 13.0441 13.2548 13.034 13.2981 13.0351C13.3415 13.0363 13.3842 13.0487 13.4235 13.0716C13.4628 13.0945 13.4979 13.1273 13.5265 13.1679C13.5551 13.2086 13.5767 13.2563 13.5897 13.3079C13.6028 13.3595 13.6071 13.4139 13.6024 13.4677C13.5977 13.5215 13.5841 13.5734 13.5624 13.6203C13.5408 13.6672 13.5115 13.708 13.4766 13.74C13.4416 13.772 13.4017 13.7946 13.3594 13.8064C12.8028 14.0255 12.2358 14.2015 11.6618 14.3334L12.405 16.1973C12.4374 16.2755 12.4891 16.3386 12.5525 16.3772C12.6159 16.4159 12.6876 16.4281 12.757 16.412C14.611 15.846 16.2225 14.8603 17.4037 13.582C17.4527 13.5352 17.4887 13.4707 17.5069 13.3972C17.5252 13.3238 17.5246 13.2451 17.5054 13.1721Z" fill="black"/>
</svg>
