<svg width="19" height="16" viewBox="0 0 19 16" fill="none" xmlns="http://www.w3.org/2000/svg">
<path d="M2.86499 0.958984H15.2799C16.0398 0.958984 16.7685 1.27505 17.3058 1.83766C17.8431 2.40027 18.1449 3.16333 18.1449 3.95898V12.959C18.1449 13.7546 17.8431 14.5177 17.3058 15.0803C16.7685 15.6429 16.0398 15.959 15.2799 15.959H2.86499C2.10515 15.959 1.37643 15.6429 0.839136 15.0803C0.301846 14.5177 0 13.7546 0 12.959V3.95898C0 3.16333 0.301846 2.40027 0.839136 1.83766C1.37643 1.27505 2.10515 0.958984 2.86499 0.958984ZM2.86499 1.95898C2.41688 1.9582 1.98291 2.12325 1.63973 2.42498L9.07247 7.47898L16.5052 2.42498C16.1619 2.1234 15.728 1.95837 15.2799 1.95898H2.86499ZM9.07247 8.67098L1.08297 3.23898C0.998246 3.46866 0.954858 3.71277 0.954997 3.95898V12.959C0.954997 13.4894 1.15623 13.9981 1.51442 14.3732C1.87261 14.7483 2.35843 14.959 2.86499 14.959H15.2799C15.7865 14.959 16.2723 14.7483 16.6305 14.3732C16.9887 13.9981 17.1899 13.4894 17.1899 12.959V3.95898C17.1899 3.70498 17.1451 3.46198 17.062 3.23898L9.07247 8.66998V8.67098Z" fill="black"/>
</svg>
