<svg width="45" height="13" viewBox="0 0 45 13" fill="none" xmlns="http://www.w3.org/2000/svg">
<path fill-rule="evenodd" clip-rule="evenodd" d="M18.53 10.03H18.51C18.519 10.03 18.525 10.04 18.534 10.041H18.54L18.53 10.031V10.03ZM18.534 10.041C18.441 10.042 18.207 10.091 17.96 10.091C17.18 10.091 16.91 9.73101 16.91 9.26101V6.13001H18.5C18.59 6.13001 18.66 6.05001 18.66 5.94001V4.24001C18.66 4.15001 18.58 4.07001 18.5 4.07001H16.91V1.96001C16.91 1.88001 16.86 1.83001 16.77 1.83001H14.61C14.52 1.83001 14.47 1.88001 14.47 1.96001V4.13001C14.47 4.13001 13.38 4.40001 13.31 4.41001C13.23 4.43001 13.18 4.50001 13.18 4.58001V5.94001C13.18 6.05001 13.26 6.13001 13.35 6.13001H14.46V9.41001C14.46 11.85 16.16 12.1 17.32 12.1C17.85 12.1 18.49 11.93 18.59 11.88C18.65 11.86 18.68 11.79 18.68 11.72V10.22C18.6814 10.1775 18.6674 10.1358 18.6406 10.1028C18.6137 10.0697 18.5759 10.0474 18.534 10.04V10.041ZM42.23 7.84001C42.23 6.03001 41.5 5.79001 40.73 5.87001C40.13 5.91001 39.65 6.21001 39.65 6.21001V9.73001C39.65 9.73001 40.14 10.07 40.87 10.09C41.9 10.12 42.23 9.75001 42.23 7.84001ZM44.66 7.68001C44.66 11.11 43.55 12.09 41.61 12.09C39.97 12.09 39.09 11.26 39.09 11.26C39.09 11.26 39.05 11.72 39 11.78C38.97 11.84 38.92 11.86 38.86 11.86H37.38C37.28 11.86 37.19 11.78 37.19 11.69L37.21 0.580009C37.21 0.490009 37.29 0.410009 37.38 0.410009H39.51C39.6 0.410009 39.68 0.490009 39.68 0.580009V4.35001C39.68 4.35001 40.5 3.82001 41.7 3.82001L41.69 3.80001C42.89 3.80001 44.66 4.25001 44.66 7.68001V7.68001ZM35.94 4.07001H33.84C33.73 4.07001 33.67 4.15001 33.67 4.26001V9.70001C33.67 9.70001 33.12 10.09 32.37 10.09C31.62 10.09 31.4 9.75001 31.4 9.00001V4.25001C31.4 4.16001 31.32 4.08001 31.23 4.08001H29.09C29 4.08001 28.92 4.16001 28.92 4.25001V9.36001C28.92 11.56 30.15 12.11 31.84 12.11C33.23 12.11 34.36 11.34 34.36 11.34C34.36 11.34 34.41 11.73 34.44 11.79C34.46 11.84 34.53 11.88 34.6 11.88H35.94C36.05 11.88 36.11 11.8 36.11 11.71L36.13 4.24001C36.13 4.15001 36.05 4.07001 35.94 4.07001V4.07001ZM12.24 4.06001H10.11C10.02 4.06001 9.94 4.15001 9.94 4.26001V11.6C9.94 11.8 10.07 11.87 10.24 11.87H12.16C12.36 11.87 12.41 11.78 12.41 11.6V4.23001C12.41 4.14001 12.33 4.06001 12.24 4.06001V4.06001ZM11.19 0.680009C10.42 0.680009 9.81 1.29001 9.81 2.06001C9.81 2.83001 10.42 3.44001 11.19 3.44001C11.94 3.44001 12.55 2.83001 12.55 2.06001C12.55 1.29001 11.94 0.680009 11.19 0.680009ZM27.68 0.430009H25.57C25.48 0.430009 25.4 0.510009 25.4 0.600009V4.69001H22.09V0.600009C22.09 0.510009 22.01 0.430009 21.92 0.430009H19.79C19.7 0.430009 19.62 0.510009 19.62 0.600009V11.71C19.62 11.8 19.71 11.88 19.79 11.88H21.92C22.01 11.88 22.09 11.8 22.09 11.71V6.96001H25.4L25.38 11.71C25.38 11.8 25.46 11.88 25.55 11.88H27.68C27.77 11.88 27.85 11.8 27.85 11.71V0.600009C27.85 0.510009 27.77 0.430009 27.68 0.430009V0.430009ZM8.81 5.35001V11.09C8.81 11.13 8.8 11.2 8.75 11.22C8.75 11.22 7.5 12.11 5.44 12.11C2.95 12.11 0 11.33 0 6.19001C0 1.05001 2.58 -0.00999125 5.1 8.75417e-06C7.28 8.75417e-06 8.16 0.490009 8.3 0.580009C8.34 0.630009 8.36 0.670009 8.36 0.720009L7.94 2.50001C7.94 2.59001 7.85 2.70001 7.74 2.67001C7.38 2.56001 6.84 2.34001 5.57 2.34001C4.1 2.34001 2.52 2.76001 2.52 6.07001C2.52 9.38001 4.02 9.77001 5.1 9.77001C6.02 9.77001 6.35 9.66001 6.35 9.66001V7.36001H4.88C4.77 7.36001 4.69 7.28001 4.69 7.19001V5.35001C4.69 5.26001 4.77 5.18001 4.88 5.18001H8.62C8.73 5.18001 8.81 5.26001 8.81 5.35001Z" fill="white"/>
</svg>
