<svg width="19" height="23" viewBox="0 0 19 23" fill="none" xmlns="http://www.w3.org/2000/svg">
<path d="M6.98689 20.5171C6.98675 20.4439 6.97235 20.3715 6.9447 20.3052C6.91705 20.2389 6.87682 20.1803 6.82684 20.1333C6.77687 20.0864 6.71836 20.0524 6.65544 20.0337C6.59253 20.015 6.52673 20.0121 6.46269 20.0251C5.05004 20.3201 3.25712 20.3241 2.73648 18.678C2.41616 17.7983 1.90292 17.0245 1.24475 16.4288C1.10862 16.3503 0.985903 16.2453 0.882253 16.1188C0.865437 16.002 0.812378 15.8957 0.732506 15.8188C0.652633 15.7419 0.551123 15.6993 0.446017 15.6987H0.44424C0.326576 15.6987 0.213719 15.7513 0.130435 15.8448C0.0471504 15.9384 0.000243714 16.0653 8.38585e-06 16.1978C-0.00265701 16.7678 0.630818 17.1948 0.819172 17.3079C1.29006 17.7829 1.66055 18.3719 1.90488 19.029C2.21406 20.0091 3.15761 21.5242 6.1002 21.1012C6.10287 21.4662 6.10731 21.6542 6.11086 21.7982L6.11531 22.0922C6.11531 22.2249 6.16211 22.3521 6.24542 22.4458C6.32873 22.5396 6.44172 22.5923 6.55954 22.5923C6.67736 22.5923 6.79035 22.5396 6.87366 22.4458C6.95697 22.3521 7.00377 22.2249 7.00377 22.0922L6.99933 21.7702C6.98919 21.3526 6.98504 20.9349 6.98689 20.5171ZM16.9981 4.87485C16.97 4.83485 16.9416 4.79517 16.9128 4.75584C16.9723 4.54582 17.0194 4.3288 17.0532 4.11079C17.1908 3.03756 17.069 1.9424 16.7005 0.940529C16.6764 0.872507 16.6393 0.811275 16.5918 0.76116C16.5444 0.711044 16.4878 0.67327 16.4259 0.650506C16.3007 0.603502 15.1528 0.255474 12.7566 2.03262C10.7497 1.45848 8.64721 1.45848 6.64039 2.03262C4.24509 0.276475 3.1043 0.605502 2.97725 0.647505C2.91418 0.669779 2.85628 0.707525 2.80773 0.758022C2.75919 0.808519 2.72119 0.870511 2.6965 0.939529C2.32119 1.9566 2.20014 3.06985 2.34644 4.15879C2.3802 4.35881 2.42374 4.55582 2.47527 4.75084C2.4448 4.79275 2.41517 4.83543 2.38642 4.87885C1.63452 5.95291 1.23446 7.28586 1.25363 8.65315C1.25185 8.96318 1.26429 9.2732 1.29183 9.58223C1.59391 14.2466 4.2673 15.5447 6.57553 15.9878C6.42549 16.2914 6.31309 16.6168 6.24147 16.9548C6.2164 17.0824 6.23669 17.2159 6.29799 17.3269C6.35929 17.4378 6.45673 17.5174 6.56946 17.5485C6.6822 17.5796 6.80127 17.5598 6.9012 17.4933C7.00113 17.4269 7.07398 17.319 7.10417 17.1928C7.18679 16.7328 7.39292 16.3128 7.69499 15.9908C7.76003 15.927 7.80719 15.8434 7.83073 15.75C7.85426 15.6567 7.85315 15.5576 7.82753 15.465C7.80191 15.3723 7.75289 15.29 7.68644 15.2282C7.62 15.1663 7.539 15.1276 7.45333 15.1167C5.00473 14.8037 2.46194 13.8916 2.17763 9.49122C2.15253 9.21279 2.14097 8.93301 2.14298 8.65315C2.12615 7.50533 2.46196 6.38617 3.09364 5.4849C3.16116 5.38289 3.23579 5.29088 3.30954 5.19887C3.36476 5.13015 3.40196 5.04553 3.41702 4.95443C3.43208 4.86333 3.4244 4.76931 3.39483 4.68283C3.31912 4.45738 3.26143 4.22477 3.22247 3.98778C3.11604 3.18407 3.18682 2.36324 3.42859 1.59758C4.48355 1.76247 5.48 2.24248 6.31432 2.98769C6.36759 3.02836 6.42811 3.05543 6.49165 3.06701C6.55518 3.07858 6.6202 3.07438 6.68215 3.0547C8.65821 2.4513 10.7414 2.4513 12.7175 3.0547C12.7796 3.07433 12.8447 3.0785 12.9084 3.06693C12.9721 3.05536 13.0327 3.02832 13.0862 2.98769C13.9147 2.2339 14.9109 1.75032 15.9666 1.58958C16.2054 2.34415 16.2777 3.15277 16.1772 3.94577C16.1379 4.19765 16.0766 4.44454 15.9941 4.68283C15.9647 4.7694 15.9571 4.86347 15.9724 4.95458C15.9876 5.04568 16.0249 5.13025 16.0803 5.19887C16.1585 5.29588 16.2358 5.40389 16.3051 5.5009C16.9382 6.39512 17.2744 7.5099 17.2558 8.65315C17.2575 8.93918 17.2451 9.2252 17.2184 9.50922C16.9368 13.8906 14.3842 14.8017 11.9259 15.1167C11.8401 15.1274 11.759 15.1661 11.6924 15.2278C11.6259 15.2896 11.5767 15.3719 11.551 15.4646C11.5253 15.5573 11.5241 15.6564 11.5476 15.7498C11.5711 15.8433 11.6182 15.927 11.6833 15.9908C11.9898 16.3158 12.1951 16.7428 12.2688 17.2098C12.3443 17.5389 12.3799 17.8779 12.3736 18.2179V20.6781C12.3648 21.3532 12.3648 21.8602 12.3648 22.0922C12.3648 22.2249 12.4116 22.3521 12.4949 22.4458C12.5782 22.5396 12.6912 22.5923 12.809 22.5923C12.9268 22.5923 13.0398 22.5396 13.1231 22.4458C13.2064 22.3521 13.2532 22.2249 13.2532 22.0922C13.2532 21.8622 13.2532 21.3612 13.2621 20.6851V18.2179C13.2688 17.7947 13.224 17.3724 13.1288 16.9628C13.0621 16.6219 12.9523 16.2936 12.8028 15.9878C15.1208 15.5457 17.8048 14.2476 18.1033 9.60223C18.1327 9.28721 18.1469 8.97018 18.1442 8.65315C18.1644 7.28197 17.7591 5.94579 16.9981 4.87485Z" fill="black"/>
</svg>
