<svg width="20" height="21" viewBox="0 0 20 21" fill="none" xmlns="http://www.w3.org/2000/svg">
<path d="M10.0001 6.28764C9.09356 6.28764 8.20742 6.55645 7.4537 7.06007C6.69997 7.56369 6.11252 8.27951 5.76561 9.11701C5.41871 9.9545 5.32795 10.8761 5.5048 11.7651C5.68164 12.6542 6.11816 13.4709 6.75915 14.1119C7.40015 14.7529 8.21682 15.1894 9.1059 15.3662C9.99498 15.5431 10.9165 15.4523 11.754 15.1054C12.5915 14.7585 13.3073 14.1711 13.811 13.4173C14.3146 12.6636 14.5834 11.7775 14.5834 10.871C14.5834 9.6554 14.1005 8.48961 13.241 7.63007C12.3814 6.77052 11.2156 6.28764 10.0001 6.28764ZM10.0001 14.621C9.25838 14.621 8.53336 14.401 7.91667 13.989C7.29999 13.5769 6.81934 12.9913 6.53551 12.306C6.25168 11.6208 6.17742 10.8668 6.32212 10.1394C6.46681 9.41195 6.82396 8.74377 7.34841 8.21932C7.87286 7.69487 8.54104 7.33772 9.26847 7.19303C9.9959 7.04833 10.7499 7.12259 11.4351 7.40642C12.1203 7.69025 12.706 8.1709 13.1181 8.78758C13.5301 9.40427 13.7501 10.1293 13.7501 10.871C13.7501 11.8655 13.355 12.8194 12.6517 13.5226C11.9484 14.2259 10.9946 14.621 10.0001 14.621V14.621ZM14.5834 0.870972H5.41673C3.98014 0.870972 2.60239 1.44165 1.58657 2.45748C0.570744 3.4733 6.10352e-05 4.85105 6.10352e-05 6.28764V15.4543C6.10352e-05 16.1656 0.140167 16.87 0.41238 17.5272C0.684593 18.1844 1.08358 18.7815 1.58657 19.2845C2.60239 20.3003 3.98014 20.871 5.41673 20.871H14.5834C15.2947 20.871 15.9991 20.7309 16.6563 20.4587C17.3134 20.1864 17.9106 19.7874 18.4136 19.2845C18.9165 18.7815 19.3155 18.1844 19.5877 17.5272C19.86 16.87 20.0001 16.1656 20.0001 15.4543V6.28764C20.0001 5.57631 19.86 4.87195 19.5877 4.21477C19.3155 3.55759 18.9165 2.96046 18.4136 2.45748C17.9106 1.95449 17.3134 1.5555 16.6563 1.28329C15.9991 1.01108 15.2947 0.870972 14.5834 0.870972V0.870972ZM19.1667 15.4543C19.1667 16.6699 18.6838 17.8357 17.8243 18.6952C16.9648 19.5548 15.799 20.0376 14.5834 20.0376H5.41673C4.20115 20.0376 3.03536 19.5548 2.17582 18.6952C1.31628 17.8357 0.833394 16.6699 0.833394 15.4543V6.28764C0.833394 5.07206 1.31628 3.90627 2.17582 3.04673C3.03536 2.18719 4.20115 1.7043 5.41673 1.7043H14.5834C15.799 1.7043 16.9648 2.18719 17.8243 3.04673C18.6838 3.90627 19.1667 5.07206 19.1667 6.28764V15.4543ZM16.2501 5.4543C16.2501 5.61912 16.2012 5.78024 16.1096 5.91728C16.0181 6.05432 15.8879 6.16113 15.7356 6.2242C15.5834 6.28728 15.4158 6.30378 15.2542 6.27163C15.0925 6.23947 14.944 6.1601 14.8275 6.04356C14.7109 5.92702 14.6316 5.77853 14.5994 5.61688C14.5673 5.45523 14.5838 5.28767 14.6468 5.1354C14.7099 4.98313 14.8167 4.85298 14.9538 4.76141C15.0908 4.66985 15.2519 4.62097 15.4167 4.62097C15.6377 4.62097 15.8497 4.70877 16.006 4.86505C16.1623 5.02133 16.2501 5.23329 16.2501 5.4543Z" fill="black"/>
</svg>
