<svg width="19" height="18" viewBox="0 0 19 18" fill="none" xmlns="http://www.w3.org/2000/svg">
<path d="M17.7789 0.886548C17.6353 0.757705 17.4605 0.671957 17.2734 0.63852C17.0863 0.605083 16.894 0.625223 16.7171 0.696774L0.658407 7.24847C0.449713 7.33468 0.273344 7.48844 0.155466 7.68694C0.0375885 7.88544 -0.015519 8.11811 0.0040228 8.35042C0.0235646 8.58273 0.114714 8.80232 0.26395 8.9766C0.413186 9.15088 0.612556 9.27057 0.832484 9.31791L5.19313 10.2306V15.8154C5.19048 16.0305 5.25059 16.2415 5.36554 16.4205C5.48049 16.5995 5.64492 16.7383 5.83722 16.8185C5.96738 16.8723 6.10621 16.8999 6.2463 16.8998C6.38226 16.9 6.5169 16.8721 6.64241 16.8178C6.76791 16.7635 6.88179 16.6839 6.97742 16.5835L9.46673 13.999L13.1398 17.3516C13.328 17.5286 13.5735 17.6254 13.8274 17.6228C13.9368 17.6225 14.0455 17.6042 14.1494 17.5685C14.3205 17.5102 14.4744 17.4073 14.5963 17.2697C14.7182 17.1321 14.8041 16.9643 14.8457 16.7823L18.1184 1.94386C18.1612 1.75226 18.1522 1.55209 18.0923 1.36549C18.0324 1.1789 17.9239 1.01314 17.7789 0.886548ZM0.693222 8.28771C0.682869 8.20938 0.698865 8.12975 0.738508 8.06224C0.77815 7.99474 0.839013 7.94351 0.910819 7.9172L15.6378 1.91675L5.46295 9.54383L0.971746 8.61303C0.896941 8.59902 0.828833 8.55933 0.778332 8.50035C0.727831 8.44136 0.697861 8.36648 0.693222 8.28771ZM6.4813 16.0684C6.43401 16.1194 6.37301 16.1545 6.30625 16.169C6.23949 16.1835 6.17007 16.1768 6.10704 16.1497C6.04286 16.1228 5.98788 16.0766 5.94912 16.017C5.91036 15.9575 5.88958 15.8873 5.88944 15.8154V10.7277L8.9445 13.52L6.4813 16.0684ZM17.4395 1.79023L14.1668 16.6197C14.1538 16.6812 14.1251 16.7379 14.0838 16.784C14.0424 16.8301 13.99 16.8638 13.9318 16.8817C13.8757 16.9027 13.815 16.907 13.7566 16.8943C13.6982 16.8815 13.6443 16.8521 13.6011 16.8094L6.09833 9.95952L17.3873 1.49202C17.4157 1.53509 17.4351 1.58393 17.4441 1.63532C17.4531 1.68672 17.4515 1.73951 17.4395 1.79023Z" fill="black"/>
</svg>
